<?xml version="1.0" encoding="utf-8"?>
<!-- Generator: Adobe Illustrator 25.2.2, SVG Export Plug-In . SVG Version: 6.00 Build 0)  -->
<svg version="1.1" id="Layer_1" xmlns="http://www.w3.org/2000/svg" xmlns:xlink="http://www.w3.org/1999/xlink" x="0px" y="0px"
	 viewBox="0 0 913 312" style="enable-background:new 0 0 913 312;" xml:space="preserve">
<style type="text/css">
	.st0{fill:#8B37FF;}
</style>
<g>
	<g>
		<path class="st0" d="M176.4,232.4c-13.4,7.3-37,16.3-56.5,16.3c-42.9,0-68.7-23.3-68.7-68.7v-65.2H20V71.3h31.3V16h54.9v55.5h50.8
			V115h-50.8v59.7c0,17.9,8.6,25,23,25c7.6,0,17.9-2.8,25-6.8L176.4,232.4z"/>
	</g>
	<g>
		<path class="st0" d="M348.2,243.6h-54.9V230c-13.4,12.1-31.3,18.9-53.6,18.9c-45.7,0-84.1-36.7-84.1-91.3
			c0-54.3,38.4-91.3,84.1-91.3c22.3,0,40.2,6.8,53.6,18.9V71.6h54.9V243.6z M293.3,157.5c0-26.5-19.9-44.7-42.2-44.7
			c-24,0-41.5,18.2-41.5,44.7c0,26.8,17.5,44.7,41.5,44.7C273.4,202.2,293.3,184.3,293.3,157.5z"/>
		<path class="st0" d="M552.8,157.5c0,54.6-38.4,91.3-84.1,91.3c-22.3,0-40.2-6.8-53.6-18.9V302h-54.9V71.3h54.9V85
			c13.4-12.1,31.3-18.9,53.6-18.9C514.4,66.2,552.8,103.3,552.8,157.5z M499,157.5c0-26.5-17.5-44.7-41.5-44.7
			c-22.3,0-42.2,18.2-42.2,44.7c0,26.8,19.9,44.7,42.2,44.7C481.4,202.2,499,184.3,499,157.5z"/>
		<path class="st0" d="M600,187.7c2.5,14.7,15.7,20.2,30.6,20.2c14.4,0,22.3-6.1,22.3-13.7c0-5.8-4.5-10.3-17.2-12.7l-35.1-6.8
			c-31.9-5.8-50.1-23-50.1-50.1c0-35.4,30.6-58.4,74.1-58.4c42.9,0,71.3,19.5,78.3,49.5l-50.1,9.9c-1.7-10.6-12.1-20.2-28.8-20.2
			c-14.7,0-19.5,7.3-19.5,13.4c0,4.8,2,9.6,13.1,12.1l40.5,8.3c32.6,6.8,47.7,26.5,47.7,51.8c0,38.1-32.9,57.9-78.3,57.9
			c-40.5,0-75.1-14.7-80.9-50.1L600,187.7z"/>
		<path class="st0" d="M793,302h-59.4l27.8-64.2L690.1,71h59.1l40.9,100.6L833.6,71h58.9L793,302z"/>
	</g>
	<circle class="st0" cx="857.9" cy="237.1" r="18.5"/>
</g>
</svg>
