<?xml version="1.0" encoding="utf-8"?>
<!-- Generator: Adobe Illustrator 25.2.2, SVG Export Plug-In . SVG Version: 6.00 Build 0)  -->
<svg version="1.1" id="Layer_1" xmlns="http://www.w3.org/2000/svg" xmlns:xlink="http://www.w3.org/1999/xlink" x="0px" y="0px"
	 viewBox="0 0 710.5 710.5" style="enable-background:new 0 0 710.5 710.5;" xml:space="preserve">
<style type="text/css">
	.st0{fill:#EDEAF1;}
	.st1{fill:#8B37FF;}
	.st2{fill:#FFFFFF;}
</style>
<g id="Layer_2_1_">
	<path class="st0" d="M57.6,0h595.4c31.8,0,57.6,25.8,57.6,57.6v595.4c0,31.8-25.8,57.6-57.6,57.6H57.6C25.8,710.5,0,684.7,0,652.9
		V57.6C0,25.8,25.8,0,57.6,0z"/>
</g>
<circle class="st1" cx="355.2" cy="355.2" r="215.8"/>
<g id="Layer_1_1_">
	<path class="st2" d="M541.8,367.7c-0.9,6.9-1.6,13.9-2.8,20.8c-8.2,46.1-30.6,83.9-66.6,113.6c-13.2,10.9-28,19.8-43.8,26.5
		c-6.8,2.9-13.8,1-17.9-4.5c-3.9-5.3-4-12.6,0.3-17.5c2.1-2.3,4.7-4.1,7.6-5.3c35.2-15.9,61.4-41.1,78.4-75.8
		c44.3-90.8-8.9-200.8-107.5-222.3c-86.1-18.8-170.3,36-188.3,122.8c-17.4,83.6,38.1,168.2,121.5,185.1c9,1.8,17.8-4,17.9-12.9
		c0.4-21.3,0.1-42.7,0.1-64.2c-2.2-0.7-4.4-1.3-6.6-2c-29.1-9.3-49-36.2-49.4-66.8c-0.1-12.5-0.1-25,0-37.5c0-9.2,6-15.2,15.3-15.3
		c4,0,8,0,12.4,0V308c0-10.8,0-21.6,0-32.4c0-8.7,6.1-15,14.4-15.1c8.5-0.1,14.7,6.2,14.7,15.1c0.1,12,0,24,0,36.3h29.2v-10.9
		c0-8.3,0-16.5,0-24.8c0-9.3,6-15.7,14.5-15.7c8.7,0,14.6,6.4,14.7,15.9c0,11.8,0,23.5,0,35.8c3.8,0,7.4,0,11,0
		c10,0.1,15.9,5.9,15.9,15.8c0,12,0,24,0,36c0.1,32.6-22.1,61.1-53.7,69c-2.6,0.7-3.1,1.7-3.1,4.1c0.1,19.4,0.1,38.8,0,58.3
		c0,30.2-25.7,50.7-55.1,43.5c-67.7-16.8-113.8-58.1-136.5-124.1c-29.2-84.9,10.3-181.5,90-223.2c107.6-56.2,238.3,2.3,267.9,119.9
		c2.5,9.8,3.3,20.1,4.9,30.1c0.2,1.2,0.4,2.4,0.7,3.5L541.8,367.7z M397.7,341.7h-83.8c0,8.1-0.2,16,0,23.9
		c0.5,19.6,15.3,36.7,34.4,40c19.9,3.5,39.4-7.7,46.5-26.5C399.4,366.8,396.8,354.3,397.7,341.7z"/>
</g>
</svg>
