<svg id="Layer_2" data-name="Layer 2" xmlns="http://www.w3.org/2000/svg" viewBox="0 0 710.5 710.5"><defs><style>.cls-1{fill:#edeaf1;}.cls-2{fill:#8b37ff;}</style></defs><rect class="cls-1" width="710.5" height="710.5" rx="57.57"/><path class="cls-2" d="M251.62,218.59c5.39-2.75,10.66-5.8,16.2-8.22C303,195,346,202.93,373.32,229.8c35.62,35,39.74,88.58,9.9,128.87-1.17,1.57-2.26,2.81-.53,5,15.22,19.29,30.3,38.68,45.42,58a19.5,19.5,0,0,0,1.5,1.47c6.88-5.37,13.65-10.68,20.46-15.95a29.71,29.71,0,0,1,4.81-3.26c6.43-3.19,13.61-1.63,17.74,3.69s3.79,12.6-.85,18.11c-5.7,6.77-5.7,6.77-.36,13.55,3.73,4.73,5.17,5,10.36,2,6.55-3.81,13.59-3.25,18.1,1.44a14.08,14.08,0,0,1-1.24,21c-6.46,5.35-13.17,10.4-19.78,15.57l-3.72,2.91c1.83,2.34,3.64,4.42,5.19,6.68A21.27,21.27,0,0,1,446.82,515c-1.21-1.36-2.36-2.79-3.48-4.22Q396.63,450.93,350,391.07c-1.84-2.37-3.26-3.06-6.25-1.78a96.79,96.79,0,0,1-106.49-20.51c-36.33-36-38.44-94.55-4.77-132.94,2.47-2.82,5.09-5.51,7.65-8.26ZM339.4,343a54.78,54.78,0,0,0-67.28-86.47c-23.78,18.4-28.08,53.07-9.55,76.91A54.72,54.72,0,0,0,339.4,343Z" transform="translate(-12.94 -14.08)"/></svg>