<svg id="Layer_2" data-name="Layer 2" xmlns="http://www.w3.org/2000/svg" viewBox="0 0 710.5 710.5"><defs><style>.cls-1{fill:#edeaf1;}.cls-2{fill:#8b37ff;}</style></defs><rect class="cls-1" width="710.5" height="710.5" rx="57.57"/><path class="cls-2" d="M371.23,173.18c4.88,1.82,8,5.43,10.85,9.69,24,36.58,48.57,72.85,72.14,109.73,16.91,26.44,32.2,53.87,43.77,83.19,8.06,20.41,13.35,41.22,10.57,63.47Q501.1,498.83,454,535.92a135.72,135.72,0,0,1-70.29,28.68,138.52,138.52,0,0,1-85.81-18C271,531.21,251.11,509.3,238.81,480.9c-13-30.08-16-60.88-4.94-92.47,8.16-23.35,19-45.4,31.1-66.85,23.57-41.71,50.57-81.23,77.59-120.74,3.82-5.58,7.59-11.21,11.09-17,2.84-4.7,6.23-8.6,11.45-10.66Zm-2.89,38.54c-.84,1.08-1.33,1.64-1.73,2.25-20.23,30.68-40.8,61.13-60.54,92.12-15.49,24.31-29.74,49.38-40.8,76.11-8.08,19.5-13,39.32-9.12,60.75,5.16,28.6,18.41,52.3,41.3,70.21,23.37,18.28,50,26.37,79.72,24.2a109.65,109.65,0,0,0,55.94-19.71c24.27-17,39.33-40.38,45.89-69.14,2.71-11.86,3.74-23.95,1.39-36.1-3.84-19.89-12.21-38.06-21.37-55.88-16.12-31.36-35-61.06-54.5-90.41C392.6,248.16,380.64,230.22,368.34,211.72Z" transform="translate(-12.94 -14.08)"/><path class="cls-2" d="M463.82,429.64c-3.39,35.1-18.82,60.54-47.39,77.8-6.83,4.13-14.15,2.6-18.73-3.47a13.65,13.65,0,0,1,1.17-18.14,17.56,17.56,0,0,1,3.3-2.58c21.1-12.59,32.05-31.4,34.24-55.65.58-6.4,4.43-10.87,10.25-12.41,5.36-1.41,11.5.53,14.33,5.5C462.78,423.83,463.25,427.73,463.82,429.64Z" transform="translate(-12.94 -14.08)"/></svg>